<?xml version="1.0" encoding="UTF-8"?>
<svg version="1.1" xmlns="http://www.w3.org/2000/svg" width="2000" height="2267">
<path d="M0 0 C23.76 0 47.52 0 72 0 C85.74404865 33.21478424 85.74404865 33.21478424 91.92378426 48.81154251 C93.13086678 51.85799916 94.34062826 54.90338214 95.55088806 57.94857788 C97.30831127 62.37118575 99.06473436 66.79418869 100.8203125 71.2175293 C105.59392584 83.24389198 110.37615054 95.26683065 115.16015625 107.2890625 C115.40578261 107.90637332 115.65140897 108.52368414 115.90447855 109.15970135 C126.70376348 136.2996609 137.59235972 163.4034328 148.5 190.5 C162.91118022 226.30260437 177.24245233 262.13594135 191.5 298 C207.8231742 339.05913464 224.25300849 380.07436627 240.74511719 421.06591797 C242.50849327 425.44888127 244.27183288 429.83185924 246.03515625 434.21484375 C246.46387402 435.28041504 246.89259178 436.34598633 247.33430099 437.44384766 C253.08978081 451.74992697 258.83360544 466.06059669 264.55859375 480.37890625 C264.88950705 481.20652277 265.22042034 482.03413929 265.56136131 482.8868351 C268.69461335 490.72398381 271.82571002 498.56199213 274.95524883 506.40062428 C280.63605487 520.62818835 286.33183755 534.84915459 292.09184265 549.04487228 C292.93280012 551.11759797 293.77318366 553.19055545 294.61340332 555.26358032 C297.7465163 562.99397492 297.7465163 562.99397492 300.8927002 570.71905518 C302.27386034 574.10266078 303.64915115 577.48859814 305.0234375 580.875 C305.43111359 581.86776947 305.83878967 582.86053894 306.25881958 583.88339233 C306.62377533 584.78554474 306.98873108 585.68769714 307.36474609 586.6171875 C307.68285248 587.39690918 308.00095886 588.17663086 308.32870483 588.97998047 C309 591 309 591 309 594 C310.98 594 312.96 594 315 594 C315.37125 592.82695313 315.7425 591.65390625 316.125 590.4453125 C318.45294806 583.47500289 321.25378577 576.68789416 324 569.875 C324.61661998 568.33982859 325.23306987 566.80458886 325.84936523 565.26928711 C327.89481572 560.17760239 329.94669231 555.08852048 332 550 C332.35700989 549.11519958 332.71401978 548.23039917 333.08184814 547.31878662 C337.77792234 535.68244327 342.48314099 524.04980444 347.19021606 512.41790771 C351.52340568 501.7087736 355.84897992 490.99656785 360.17404175 480.28414917 C367.66701509 461.72546366 375.16466945 443.16867736 382.66699219 424.61376953 C388.94868465 409.07747 395.22548261 393.53919856 401.5 378 C408.55093488 360.53795944 415.60575694 343.07749729 422.66497803 325.61880493 C426.75205449 315.51059858 430.83855033 305.40215948 434.92054749 295.29190063 C435.81321247 293.08141935 436.70631054 290.87111291 437.59983826 288.66098022 C439.82528579 283.15466673 442.04329124 277.64559069 444.24536133 272.12988281 C448.03650187 262.65485679 451.85916111 253.21149681 456.00787354 243.88630676 C457.6990453 240.08026314 459.35320128 236.25861974 461.00579834 232.43569946 C461.7806278 230.67471431 462.57469932 228.92204373 463.38970947 227.17929077 C468.56014406 216.57557598 468.56014406 216.57557598 467.77203369 205.16809082 C466.66796936 202.4525609 465.40435869 199.84018671 464.07980347 197.22595215 C462.04824178 193.0380057 460.4599568 188.66493317 458.77734375 184.328125 C457.99820466 182.37311577 457.21630846 180.41920344 456.43188477 178.46630859 C456.02688751 177.45687195 455.62189026 176.4474353 455.20462036 175.40740967 C454.57739578 173.84449188 454.57739578 173.84449188 453.9375 172.25 C453.04933641 170.03339048 452.16123566 167.81675577 451.27319336 165.60009766 C444.38558593 148.41694363 437.45899808 131.24957303 430.52050781 114.08691406 C422.88322638 95.19529035 415.26495633 76.29604461 407.6520195 57.39459991 C406.70024605 55.03164446 405.74835177 52.66873773 404.79641724 50.30584717 C401.61165018 42.40044029 398.42797037 34.49459875 395.24771023 26.58737755 C394.04397654 23.59451467 392.83958313 20.60192134 391.6338501 17.60986328 C390.46918202 14.71970062 389.30651669 11.82874199 388.14453125 8.9375 C387.65070198 7.71426025 387.65070198 7.71426025 387.14689636 6.46630859 C385 1.11441945 385 1.11441945 385 0 C408.76 0 432.52 0 457 0 C461.49987524 8.99975049 461.49987524 8.99975049 462.82411194 12.34211731 C463.12916908 13.10694176 463.43422623 13.8717662 463.74852753 14.65976715 C464.2289085 15.87969486 464.2289085 15.87969486 464.71899414 17.12426758 C465.07088554 18.00937263 465.42277695 18.89447769 465.78533173 19.80640411 C466.9552036 22.75116271 468.12011038 25.69786037 469.28515625 28.64453125 C470.12438936 30.75911055 470.96399336 32.87354269 471.80393982 34.98783875 C473.610039 39.53560903 475.41418133 44.08414856 477.21679688 48.63330078 C481.84311059 60.30728748 486.4819451 71.97630242 491.1212821 83.64511824 C491.88266184 85.56022774 492.64391678 87.47538683 493.40515518 89.39055252 C503.59411191 115.0226373 513.87177517 140.61872736 524.17365646 166.20562363 C539.48260159 204.23003113 554.70118199 242.28922874 569.84375 280.38018799 C583.65358444 315.11741644 597.54237928 349.82189635 611.5 384.5 C628.19995995 425.99186942 644.79172981 467.52590801 661.31640625 509.08789062 C661.94870557 510.67820162 661.94870557 510.67820162 662.59377861 512.30064011 C663.01117365 513.35044682 663.42856869 514.40025352 663.85861206 515.48187256 C664.27167477 516.52077385 664.68473747 517.55967514 665.11031723 518.63005829 C665.92917729 520.68963798 666.74799757 522.74923349 667.56677628 524.80884552 C676.34398067 546.88611509 685.16630773 568.94528122 694 591 C695.65 591 697.3 591 699 591 C703.71474034 576.87953591 708.42758127 562.75843884 713.13838387 548.63666058 C715.32758122 542.07414339 717.51732376 535.51180922 719.70849609 528.94995117 C728.19963576 503.52082712 736.68133684 478.08994185 744.94626236 452.58618736 C749.80637666 437.5949591 754.76051805 422.63614507 759.75 407.6875 C760.31577066 405.9923397 760.31577066 405.9923397 760.89297104 404.26293373 C763.98146948 395.01134824 767.07392691 385.76108699 770.16650391 376.51086426 C772.8628217 368.44534975 775.55762806 360.37933259 778.25 352.3125 C778.62749893 351.1815239 779.00499786 350.05054779 779.39393616 348.88529968 C784.31301096 334.14087729 789.1765212 319.37986275 793.96875 304.59375 C799.22381858 288.3799023 804.57256243 272.19867643 809.96875 256.03125 C810.55074661 254.28742035 810.55074661 254.28742035 811.14450073 252.50836182 C814.32797345 242.971864 817.51539797 233.4366879 820.70294189 223.90155029 C823.48085759 215.59122173 826.25728268 207.28039741 829.03125 198.96875 C829.41963484 197.80509541 829.80801968 196.64144081 830.20817375 195.44252396 C835.48570353 179.62295732 840.69598418 163.78323876 845.83789253 147.9191246 C853.49615579 124.30097659 861.37659395 100.75674038 869.24151611 77.20678711 C871.2526316 71.1838067 873.2619825 65.16023767 875.27148438 59.13671875 C878.5131285 49.42041141 881.75563071 39.70439111 884.99996948 29.98898315 C888.33715282 19.99393252 891.6677644 9.99670679 895 0 C918.76 0 942.52 0 967 0 C966.22926332 3.85368339 965.40659939 6.77966465 963.95654297 10.35449219 C963.5294101 11.41371887 963.10227722 12.47294556 962.66220093 13.56427002 C961.95929428 15.28815948 961.95929428 15.28815948 961.2421875 17.046875 C960.75158844 18.26010437 960.26098938 19.47333374 959.75552368 20.72332764 C958.69201707 23.35329332 957.62577904 25.98212831 956.55737305 28.61010742 C954.85232083 32.80409461 953.15325788 37.0004919 951.45507812 41.19726562 C949.40444971 46.26388793 947.35237477 51.32991944 945.29829025 56.3951416 C940.48225385 68.27114171 935.6871673 80.15555229 930.89483643 92.0411377 C929.01197123 96.71019518 927.12785458 101.37874724 925.2437439 106.04730225 C918.92297018 121.70940835 912.60679058 137.37336563 906.29122162 153.03757095 C897.98853995 173.63031423 889.68382336 194.22223374 881.375 214.8125 C880.90350525 215.98092438 880.4320105 217.14934875 879.94622803 218.35317993 C876.15870739 227.73904904 872.37098462 237.12483657 868.58325195 246.51062012 C865.26373873 254.73620805 861.94430814 262.96182931 858.625 271.1875 C858.15366638 272.35552155 857.68233276 273.52354309 857.19671631 274.72695923 C849.10018834 294.79153975 841.00822506 314.85795863 832.9175415 334.92489624 C824.97606378 354.62170029 817.03081922 374.31698105 809.08300781 394.01123047 C801.55202889 412.67282003 794.02500983 431.33600299 786.5 450 C778.03108727 471.00512364 769.55872765 492.00885233 761.08300781 513.01123047 C754.07919369 530.36651798 747.07857182 547.7230897 740.08026123 565.08059692 C735.38718708 576.72053756 730.69369138 588.36030824 726 600 C725.74383408 600.63525856 725.48766815 601.27051712 725.22373962 601.92502594 C712.84291252 632.62767962 700.45414446 663.32699651 688 694 C680.41 694 672.82 694 665 694 C661.23358279 685.88023578 657.79398372 677.67773471 654.4921875 669.359375 C653.96964069 668.04872138 653.44683215 666.73817209 652.92378235 665.42771912 C651.81540635 662.64958564 650.70852751 659.87086268 649.60287476 657.09164429 C646.94860666 650.42036826 644.28566967 643.75255043 641.6234417 637.08444786 C640.73087568 634.84867557 639.83858612 632.61279308 638.94630432 630.37690735 C634.39204205 618.96741761 629.80262404 607.5725119 625.1875 596.1875 C616.00227186 573.5158385 606.87544041 550.82077462 597.75 528.125 C597.35547512 527.14381069 596.96095024 526.16262138 596.55447006 525.15169907 C591.62024827 512.88019719 586.68666578 500.60843836 581.75337505 488.33656216 C577.65251835 478.13547503 573.55117556 467.93458336 569.44974136 457.73372841 C568.23299815 454.70751308 567.01626296 451.68129453 565.79953003 448.65507507 C562.55624884 440.5884949 559.31295096 432.52192144 556.06964111 424.45535278 C554.04301184 419.41484013 552.01638989 414.37432454 549.9897728 409.33380699 C549.17946501 407.31844671 548.36915465 405.30308747 547.55884171 403.28772926 C542.6035732 390.96329275 537.64869352 378.63870003 532.69432449 366.3139019 C529.36664086 358.03581458 526.03859386 349.75787339 522.71030807 341.48002815 C520.39248998 335.71528594 518.07505735 329.95038901 515.75797653 324.18535042 C514.31834391 320.6038059 512.8782255 317.02245682 511.43805695 313.44112778 C510.3950556 310.84685865 509.35276066 308.25230645 508.31048584 305.65774536 C504.61681557 296.4684992 500.89887734 287.28962807 497.15527344 278.12060547 C495.96519579 275.20049356 494.77545336 272.28024527 493.5857811 269.35996819 C492.45190465 266.58177952 491.3123519 263.8059645 490.17263794 261.03016663 C489.48704677 259.3482681 488.80171918 257.66626211 488.11669922 255.98413086 C487.79927135 255.21618887 487.48184349 254.44824688 487.1547966 253.65703392 C485.9250289 250.62323153 485 248.30634614 485 245 C484.34 245 483.68 245 483 245 C482.88263992 245.69971924 482.76527985 246.39943848 482.6443634 247.12036133 C481.93911782 250.27208044 480.89223447 253.0762931 479.69018555 256.07421875 C479.20845383 257.28158691 478.72672211 258.48895508 478.23039246 259.73291016 C477.69930074 261.0511603 477.16807216 262.36935531 476.63671875 263.6875 C476.08363997 265.0680648 475.53089703 266.44876418 474.97846985 267.82958984 C473.81339732 270.73918449 472.64548802 273.64761798 471.4753418 276.55517578 C470.01369438 280.18716924 468.55700277 283.82112063 467.10226154 287.45588493 C460.9662476 302.78458571 454.75121322 318.07699206 448.41656494 333.32473755 C443.09304639 346.15234052 437.90499151 359.03398203 432.72397614 371.91956711 C431.36707299 375.2932652 430.00845763 378.66627359 428.64990234 382.03930664 C428.09625126 383.41395521 427.54260136 384.78860426 426.98895264 386.16325378 C426.71518547 386.84297934 426.4414183 387.52270489 426.15935516 388.22302818 C425.33585936 390.26783824 424.51253934 392.31271899 423.68927002 394.35762024 C418.84538716 406.38864562 413.9879834 418.41418255 409.125 430.4375 C408.35733456 432.33577234 407.58967503 434.23404707 406.82202148 436.13232422 C405.30756857 439.87716206 403.79297997 443.62194499 402.27832031 447.36669922 C398.74884162 456.0931044 395.22129586 464.82029104 391.69354248 473.5473938 C389.71243495 478.44829216 387.73121182 483.3491438 385.75 488.25 C384.95833278 490.20833311 384.16666611 492.16666644 383.375 494.125 C340.625 599.87499999 340.625 599.87499999 339.43774414 602.81187439 C338.64524358 604.77228497 337.85276315 606.73270369 337.06030273 608.69313049 C335.09405862 613.55724849 333.12747701 618.42122946 331.16015625 623.28491211 C327.4430607 632.47550053 323.72961024 641.66751946 320.02722168 650.86404419 C318.27501699 655.21585806 316.52100293 659.56694161 314.7668457 663.91796875 C313.9298386 665.99556588 313.09372165 668.07352187 312.25854492 670.15185547 C311.10168752 673.03053081 309.94178961 675.90796381 308.78125 678.78515625 C308.44150146 679.6329213 308.10175293 680.48068634 307.75170898 681.35414124 C307.43210205 682.14485519 307.11249512 682.93556915 306.78320312 683.75024414 C306.50963989 684.4301088 306.23607666 685.10997345 305.95422363 685.81044006 C304.74313141 688.58941024 303.35568578 691.28862845 302 694 C294.41 694 286.82 694 279 694 C260.31673429 647.79361487 241.64795624 601.58145151 223.02202034 555.35192585 C215.47822169 536.62834606 207.92985299 517.90662289 200.375 499.1875 C192.41310684 479.45976719 184.45494828 459.73053391 176.5 440 C168.50306667 420.1654284 160.50338906 400.33196785 152.5 380.5 C144.23252348 360.01363761 135.96921066 339.52560044 127.70837402 319.03656006 C119.97527176 299.85648636 112.2393016 280.67757333 104.5 261.5 C96.76056258 242.32209011 89.02446929 223.14283543 81.29122162 203.96242905 C73.46402199 184.54900107 65.63533756 165.13617452 57.80245972 145.72503662 C56.37677009 142.19188664 54.95119445 138.65869069 53.52563477 135.12548828 C49.24280142 124.51108834 44.95890262 113.89712198 40.67124939 103.28466797 C34.43927648 87.8597555 28.21469261 72.43188319 22 57 C21.74521378 56.36745049 21.49042755 55.73490097 21.22792053 55.08318329 C17.83050303 46.648449 14.43767873 38.21189038 11.05178833 29.77252197 C10.06409675 27.31204647 9.07523767 24.85203928 8.08517456 22.39251709 C6.72145316 19.00387602 5.36209083 15.61351956 4.00390625 12.22265625 C3.59576691 11.21103928 3.18762756 10.1994223 2.76712036 9.15715027 C2.21639359 7.77817314 2.21639359 7.77817314 1.65454102 6.37133789 C1.33308609 5.5706337 1.01163116 4.7699295 0.68043518 3.94496155 C0 2 0 2 0 0 Z " fill="#3C3C3C" transform="translate(73,1082)"/>
<path d="M0 0 C1.59956082 -0.11387599 3.19920102 -0.22663739 4.7988739 -0.33892822 C6.13506035 -0.43329855 6.13506035 -0.43329855 7.49824047 -0.52957535 C19.14169399 -1.26457339 19.14169399 -1.26457339 23.82421875 1.921875 C25.6875 4.5625 25.6875 4.5625 27.18994141 7.53417969 C29.02703196 11.0517596 31.09775027 14.318084 33.32421875 17.59375 C33.75334564 18.23127701 34.18247253 18.86880402 34.62460327 19.52565002 C35.57091893 20.9304484 36.51889047 22.33413238 37.46829224 23.73684692 C39.07317235 26.10811477 40.67357579 28.48235705 42.27319336 30.85717773 C45.25648229 35.28461226 48.24354583 39.70948653 51.23156738 44.13372803 C68.35908564 69.49594858 68.35908564 69.49594858 76.25 81.375 C82.68153329 91.05319148 89.17834633 100.68643496 95.6875 110.3125 C96.21000336 111.08522247 96.73250671 111.85794495 97.27084351 112.65408325 C99.44788641 115.87353422 101.62502421 119.09292099 103.80226135 122.3122406 C110.5619262 132.30810707 117.3139174 142.30914873 124.0625 152.3125 C124.68615448 153.23690887 125.30980896 154.16131775 125.95236206 155.11373901 C133.35365508 166.08624733 140.73241573 177.07254805 148.05810547 188.09570312 C153.8923425 196.86320935 159.78838267 205.5885875 165.6875 214.3125 C166.21000336 215.08522247 166.73250671 215.85794495 167.27084351 216.65408325 C169.44788641 219.87353422 171.62502421 223.09292099 173.80226135 226.3122406 C180.5619262 236.30810707 187.3139174 246.30914873 194.0625 256.3125 C194.68615448 257.23690887 195.30980896 258.16131775 195.95236206 259.11373901 C203.35365508 270.08624733 210.73241573 281.07254805 218.05810547 292.09570312 C223.8923425 300.86320935 229.78838267 309.5885875 235.6875 318.3125 C236.21000336 319.08522247 236.73250671 319.85794495 237.27084351 320.65408325 C239.44788641 323.87353422 241.62502421 327.09292099 243.80226135 330.3122406 C250.5619262 340.30810707 257.3139174 350.30914873 264.0625 360.3125 C264.68615448 361.23690887 265.30980896 362.16131775 265.95236206 363.11373901 C273.33740761 374.06216025 280.70059367 385.02394416 288.00976562 396.02319336 C294.3176223 405.50280197 300.68988733 414.9388523 307.0625 424.375 C307.60483276 425.17862976 308.14716553 425.98225952 308.70593262 426.8102417 C310.27304535 429.13195859 311.84130493 431.45289514 313.41015625 433.7734375 C313.90196381 434.50154633 314.39377136 435.22965515 314.90048218 435.97982788 C318.15516763 440.78670218 321.47579379 445.54019606 324.88842773 450.23681641 C326 452 326 452 326 454 C327.98 454 329.96 454 332 454 C332.25201172 453.16621826 332.50402344 452.33243652 332.76367188 451.47338867 C334.13737137 447.6140635 335.89168846 444.04897187 337.78125 440.42578125 C338.33548897 439.35074089 338.33548897 439.35074089 338.90092468 438.25398254 C340.09639707 435.93794543 341.2980588 433.62518563 342.5 431.3125 C343.33013906 429.7076773 344.15997179 428.10269611 344.98950195 426.49755859 C349.39380731 417.98340335 353.82223006 409.48202868 358.30712891 401.01000977 C362.04270436 393.94731349 365.70876174 386.84884481 369.375 379.75 C374.39894789 370.02289506 379.4409604 360.30560393 384.51123047 350.60253906 C388.35558332 343.24265204 392.1803574 335.87273797 396 328.5 C400.80473594 319.22618439 405.6252162 309.96081604 410.4609375 300.703125 C414.32125064 293.30929772 418.16298525 285.90594113 422 278.5 C426.32088505 270.1601258 430.65131562 261.82541314 435 253.5 C441.69490396 240.68130019 448.34748362 227.840735 455 215 C462.13654472 201.22499001 469.27873956 187.45316483 476.46142578 173.70214844 C480.32161486 166.30866687 484.16315267 158.90561799 488 151.5 C492.80475467 142.22619405 497.62521617 132.9608161 502.4609375 123.703125 C506.32125064 116.30929772 510.16298525 108.90594113 514 101.5 C518.80475467 92.22619405 523.62521617 82.9608161 528.4609375 73.703125 C532.91167431 65.17843333 537.33683129 56.6405693 541.76049805 48.10180664 C546.27714579 39.38649625 550.81189806 30.68075074 555.35742188 21.98046875 C555.82341797 21.0884375 556.28941406 20.19640625 556.76953125 19.27734375 C557.17792236 18.49609131 557.58631348 17.71483887 558.00708008 16.90991211 C558.68184055 15.61198953 559.34579747 14.30840505 560 13 C569.23997552 12.97687476 578.47994114 12.95908399 587.71993923 12.94818783 C592.00999915 12.94295939 596.30003933 12.93586247 600.59008789 12.92456055 C604.726794 12.91373025 608.86348108 12.90772286 613.00020027 12.90512276 C614.58192304 12.90326876 616.16364471 12.89964864 617.74535942 12.89426994 C619.95322838 12.8870576 622.16101773 12.88600914 624.36889648 12.88647461 C625.62798325 12.884254 626.88707001 12.88203339 628.18431091 12.87974548 C631 13 631 13 632 14 C632.09758128 15.4896641 632.12522972 16.98395896 632.12534916 18.4768157 C632.12910444 19.93973772 632.12910444 19.93973772 632.13293558 21.43221372 C632.13059442 22.51865142 632.12825325 23.60508911 632.12584114 24.72444916 C632.12729458 25.87170914 632.12874802 27.01896912 632.13024551 28.20099455 C632.13328709 31.41393809 632.13179349 34.62684433 632.12846755 37.83978648 C632.12594666 41.32441302 632.12918445 44.80903476 632.13171089 48.29366064 C632.13533551 54.41032721 632.13520511 60.52698497 632.13266373 66.64365196 C632.12889492 75.73906519 632.13080784 84.83447092 632.13387203 93.92988409 C632.13914933 110.17042941 632.1386768 126.41097081 632.13579312 142.65151651 C632.13328189 156.86351855 632.13261884 171.07551915 632.13381577 185.28752136 C632.13393034 186.69919476 632.13393034 186.69919476 632.13404724 188.13938681 C632.13435855 191.95926148 632.13467695 195.77913615 632.135007 199.59901082 C632.13806901 235.4643762 632.13528777 271.32973908 632.1299101 307.19510408 C632.12516417 339.08986891 632.12558878 370.98462974 632.13037109 402.87939453 C632.13572065 438.67733207 632.13785189 474.4752674 632.13475883 510.27320528 C632.13443809 514.0862964 632.13412525 517.89938752 632.13381577 521.71247864 C632.13373669 522.65142389 632.13365761 523.59036914 632.13357614 524.55776728 C632.13243657 538.76411332 632.13377284 552.97045777 632.13629532 567.17680359 C632.13914786 583.32297079 632.13845413 599.46913343 632.13301457 615.61530006 C632.13006762 624.66220667 632.1299019 633.70910342 632.13366075 642.75600979 C632.13589135 648.78766526 632.13452907 654.81931279 632.13015598 660.85096708 C632.12776121 664.29514129 632.12699667 667.73929584 632.13056196 671.18346947 C632.1335623 674.88084937 632.13052527 678.57817394 632.12584114 682.27555084 C632.12818231 683.36198854 632.13052347 684.44842623 632.13293558 685.56778628 C632.13043207 686.54306762 632.12792855 687.51834897 632.12534916 688.5231843 C632.12524753 689.79354485 632.12524753 689.79354485 632.12514383 691.08956924 C632 693 632 693 631 694 C608.89 694 586.78 694 564 694 C564 488.08 564 282.16 564 70 C560.03358969 70.53930194 560.03358969 70.53930194 558.63476562 72.85986328 C558.02665039 74.07778564 558.02665039 74.07778564 557.40625 75.3203125 C556.93960938 76.23619141 556.47296875 77.15207031 555.9921875 78.09570312 C555.49976563 79.09537109 555.00734375 80.09503906 554.5 81.125 C553.42744531 83.2423709 552.35451845 85.35955331 551.28125 87.4765625 C550.73597656 88.56356445 550.19070313 89.65056641 549.62890625 90.77050781 C547.13852549 95.70797135 544.56831929 100.60276669 542 105.5 C540.99955426 107.41643404 539.99955576 109.33310162 539 111.25 C485 214.75 485 214.75 483.50048828 217.62402344 C482.49881619 219.5439221 481.49718871 221.46384404 480.49560547 223.38378906 C478.02155056 228.12619636 475.54676427 232.86821884 473.0703125 237.609375 C467.65433193 247.98055481 462.25574775 258.36049246 456.875 268.75 C452.55574182 277.08926599 448.21362792 285.41538838 443.82763672 293.71972656 C440.18383637 300.62859689 436.59098763 307.56356236 433 314.5 C428.63965968 322.92253771 424.25755306 331.33236621 419.828125 339.71875 C416.18421829 346.62797572 412.59115506 353.56323894 409 360.5 C404.63965968 368.92253771 400.25755306 377.33236621 395.828125 385.71875 C392.18421829 392.62797572 388.59115506 399.56323894 385 406.5 C380.63965968 414.92253771 376.25755306 423.33236621 371.828125 431.71875 C367.56514129 439.80181002 363.3707989 447.92031351 359.16967773 456.03564453 C355.44637366 463.22348633 351.69521754 470.39551133 347.91162109 477.55175781 C345.31312247 482.47734924 342.74520317 487.41829001 340.19140625 492.3671875 C339.85679886 493.01541473 339.52219147 493.66364197 339.17744446 494.33151245 C337.50799422 497.56666729 335.84062152 500.80287232 334.17602539 504.04052734 C331.22933638 509.76219882 328.26596296 515.45278654 325 521 C320.7007946 521.5276403 316.41929847 521.90305457 312.09716797 522.15356445 C310.63745862 522.25796687 309.17988354 522.40047642 307.72802734 522.58422852 C302.56851097 523.21982111 297.71933209 523.46080277 293 521 C287.70336009 515.96590905 284.30727056 509.28081262 280.73809814 502.98312378 C277.9420863 498.18428693 274.78621383 493.64431314 271.640625 489.0703125 C270.40853733 487.24848965 269.17807043 485.42556965 267.94921875 483.6015625 C266.71620078 481.77600455 265.48312766 479.95048385 264.25 478.125 C250.36554124 457.56775498 250.36554124 457.56775498 245.015625 449.5234375 C238.55958265 439.81592061 232.02423247 430.16175109 225.5 420.5 C211.38285356 399.5938849 211.38285356 399.5938849 204.8269043 389.73608398 C198.76294353 380.62723033 192.62376255 371.56869425 186.5 362.5 C172.38252213 341.59339409 172.38252213 341.59339409 165.81784058 331.7224884 C159.17844074 321.74924758 152.45178799 311.83423195 145.74609375 301.90551758 C138.98480458 291.8932693 132.23795618 281.87231998 125.54547119 271.81393433 C119.19941523 262.28380415 112.78327635 252.80084577 106.375 243.3125 C92.3742294 222.58086798 92.3742294 222.58086798 87.0078125 214.51171875 C80.55438416 204.80810252 74.02160471 195.15785963 67.5 185.5 C45.54376655 152.98496267 45.54376655 152.98496267 38.69921875 142.3203125 C38.03212891 141.29035156 37.36503906 140.26039063 36.67773438 139.19921875 C35.32017568 137.10226351 33.97428212 134.9977214 32.63867188 132.88671875 C31.97802734 131.87480469 31.31738281 130.86289063 30.63671875 129.8203125 C29.76599731 128.46317139 29.76599731 128.46317139 28.87768555 127.07861328 C26.60870225 124.56683019 25.25985414 124.50634011 22 124 C22.06148047 125.53610457 22.06148047 125.53610457 22.12420297 127.10324156 C24.78224126 193.53984597 27.34688892 259.97957379 29.83837032 326.4226222 C30.11419959 333.7781424 30.39037345 341.13364964 30.66660309 348.48915482 C31.4378102 369.02635527 32.2086955 389.56356772 32.97809982 410.1008358 C33.02640873 411.39031068 33.07471764 412.67978557 33.12449045 414.00833545 C33.22230025 416.61913847 33.32010985 419.2299415 33.41791925 421.84074454 C33.46643656 423.13579396 33.51495387 424.43084338 33.56494141 425.76513672 C33.61351985 427.06182551 33.6620983 428.35851431 33.71214882 429.69449671 C34.48339955 450.27944497 35.25705881 470.86430183 36.03191523 491.44911459 C36.88645949 514.15113452 37.73897072 536.85322988 38.5891211 559.5554148 C39.04936501 571.84439194 39.51048071 584.13333491 39.97393036 596.42219162 C40.36571978 606.81118147 40.75558343 617.20024134 41.14293924 627.58939748 C41.34002661 632.87390766 41.53800583 638.15838031 41.738451 643.44276428 C41.9220587 648.28383801 42.10303962 653.1250028 42.28199652 657.96625061 C42.3468479 659.70847659 42.41263034 661.45066824 42.4794831 663.19281857 C42.57083594 665.5771631 42.65864773 667.96161512 42.74567795 670.34612083 C42.81988846 672.32416948 42.81988846 672.32416948 42.89559817 674.3421787 C43.0424355 680.89323279 43 687.44730049 43 694 C20.89 694 -1.22 694 -24 694 C-24 684.9579625 -23.97131346 675.98060203 -23.64359379 666.95512295 C-23.60506079 665.8351449 -23.56652779 664.71516684 -23.52682713 663.56125006 C-23.39821289 659.84139674 -23.26589092 656.1216851 -23.13356018 652.40196228 C-23.03917967 649.69470934 -22.94500716 646.98744987 -22.85108703 644.28018099 C-22.6470515 638.41084413 -22.44108576 632.54157752 -22.23382378 626.67235374 C-21.92560314 617.94398254 -21.62040768 609.21550736 -21.3158035 600.48700929 C-20.80301523 585.79551919 -20.28776242 571.10411649 -19.77105904 556.4127636 C-19.2591793 541.85851797 -18.7482925 527.30423808 -18.23875237 512.74991035 C-18.20701151 511.84330436 -18.17527066 510.93669836 -18.14256797 510.00261946 C-18.01371181 506.32205234 -17.88486248 502.64148498 -17.75602232 498.9609173 C-16.54786653 464.44776216 -15.33689409 429.93470638 -14.12448172 395.42170053 C-13.04854546 364.79332258 -11.97444503 334.16488084 -10.90209961 303.53637695 C-10.86801939 302.5629825 -10.83393916 301.58958806 -10.79882621 300.58669681 C-10.73005734 298.62253011 -10.66128863 296.65836341 -10.59252006 294.6941967 C-10.42121998 289.80152982 -10.24991817 284.908863 -10.07861423 280.01619625 C-10.02791571 278.56816417 -10.02791571 278.56816417 -9.97619298 277.09087891 C-8.91826451 246.87528694 -7.85869065 216.65975264 -6.79886632 186.44422711 C-6.44764475 176.43086025 -6.09653589 166.41748945 -5.74576306 156.40410686 C-5.71425806 155.50474575 -5.68275305 154.60538464 -5.65029334 153.67877017 C-5.58686067 151.86796463 -5.52342809 150.0571591 -5.45999561 148.24635356 C-4.88484479 131.82779431 -4.30888894 115.4092636 -3.73159618 98.99077951 C-3.42671604 90.31928292 -3.12244035 81.64776565 -2.81907337 72.97621599 C-2.61582799 67.16844721 -2.41173587 61.36070857 -2.20698215 55.55299278 C-2.09070365 52.25420387 -1.97488721 48.95540064 -1.85984416 45.65656828 C-1.32868099 30.43299831 -0.72721669 15.2155283 0 0 Z " fill="#3C3C3C" transform="translate(1200,1069)"/>
<path d="M0 0 C0 115.83 0 231.66 0 351 C37.29 351 74.58 351 113 351 C131.53046218 354.47446166 131.53046218 354.47446166 137.3125 357.6875 C137.96927734 358.03562744 138.62605469 358.38375488 139.30273438 358.74243164 C157.04806926 368.38484418 168.47820062 382.10669707 175.2109375 401.109375 C177.22708186 408.49525037 178.29732521 415.56737503 178.26742554 423.21914673 C178.27195665 424.09028213 178.27648776 424.96141753 178.28115618 425.85895097 C178.29371199 428.74798247 178.29218555 431.63682332 178.29052734 434.52587891 C178.29651819 436.60974365 178.30332501 438.69360617 178.31088257 440.77746582 C178.3284951 446.41827588 178.333236 452.05902519 178.33451414 457.6998601 C178.33593922 461.23081493 178.34021561 464.7617545 178.34550858 468.29270554 C178.36399457 480.63053105 178.37218115 492.96831344 178.37060547 505.30615234 C178.36940511 516.77479308 178.39049047 528.2432453 178.4220928 539.71183836 C178.44831861 549.58397952 178.45897009 559.45605935 178.45769465 569.32823503 C178.45718679 575.2129056 178.46277229 581.0974086 178.48405075 586.98204422 C178.50353904 592.52256799 178.50348559 598.06276616 178.48901749 603.603302 C178.48694124 605.62519181 178.49155873 607.64710257 178.5037384 609.66895676 C178.63180988 632.421084 174.13268585 651.90096358 158 669 C149.84737679 677 149.84737679 677 147 677 C147 706.7 147 736.4 147 767 C136.07113542 767 127.76246312 764.68144911 119.75 757.01953125 C111.82265578 747.87123446 109.67884868 739.02875403 109.8046875 727.25390625 C109.80670166 726.35667847 109.80871582 725.45945068 109.81079102 724.53503418 C109.82118758 721.21080348 109.84910976 717.88664614 109.875 714.5625 C109.91625 707.116875 109.9575 699.67125 110 692 C89.87 692 69.74 692 49 692 C49 716.75 49 741.5 49 767 C37.22532244 767 29.49924559 764.23873232 21 756 C13.51363777 747.20597624 11.51841661 737.49161561 11.70703125 726.1796875 C11.71005249 725.30513916 11.71307373 724.43059082 11.71618652 723.52954102 C11.7316981 720.31123793 11.77357964 717.09310512 11.8125 713.875 C11.874375 706.65625 11.93625 699.4375 12 692 C-8.13 692 -28.26 692 -49 692 C-49 716.75 -49 741.5 -49 767 C-60.57939251 767 -67.48918441 764.43027918 -75.8359375 756.375 C-84.38891634 746.9883373 -86.16809289 737.36805582 -86.09765625 725.0078125 C-86.09614563 723.74892212 -86.09614563 723.74892212 -86.09460449 722.46459961 C-86.08940127 719.35138569 -86.07544014 716.23819137 -86.0625 713.125 C-86.041875 706.15375 -86.02125 699.1825 -86 692 C-106.13 692 -126.26 692 -147 692 C-147 716.75 -147 741.5 -147 767 C-158.57665867 767 -165.49604453 764.43299029 -173.8359375 756.37109375 C-183.53203008 745.74739664 -184.14137419 734.31777012 -183.96484375 720.56640625 C-183.95881619 718.11914588 -183.95564878 715.6718771 -183.95507812 713.22460938 C-183.95335788 709.38771676 -183.93735681 705.55392549 -183.87329102 701.7175293 C-183.81579761 697.99906548 -183.82215213 694.28517772 -183.83984375 690.56640625 C-183.80696762 689.42659805 -183.77409149 688.28678986 -183.74021912 687.11244202 C-183.81196236 682.29037254 -183.89170477 679.23139985 -187.20016479 675.55545044 C-189.72204106 673.5469233 -192.31847449 671.78505682 -195 670 C-209.52110008 655.72454074 -215.33363554 636.22891931 -215.53517056 616.37640381 C-215.54234284 613.5151023 -215.53023271 610.65424596 -215.51757812 607.79296875 C-215.52301091 605.70821649 -215.53014001 603.62346808 -215.53881836 601.53872681 C-215.55691706 595.92297922 -215.55004016 590.30752847 -215.53730202 584.69177628 C-215.52710415 578.78694162 -215.5365864 572.88213069 -215.54284668 566.97729492 C-215.55010344 557.06522099 -215.54058728 547.15326667 -215.52148438 537.24121094 C-215.49971955 525.81673311 -215.50677231 514.39254094 -215.52879 502.96807003 C-215.54700033 493.12126965 -215.54947486 483.27455476 -215.53903532 473.42774296 C-215.53283129 467.56330249 -215.53187906 461.69899584 -215.54518127 455.83456421 C-215.55682146 450.31855415 -215.54856611 444.80290879 -215.52560425 439.28693771 C-215.52036051 437.27472918 -215.52175556 435.26248942 -215.53065491 433.25029373 C-215.59011179 418.42888409 -214.47429084 404.15367621 -207.4375 390.75 C-207.10234375 390.09652588 -206.7671875 389.44305176 -206.421875 388.76977539 C-202.67042642 381.83484348 -197.63932848 376.43881902 -192 371 C-191.05060547 370.00419922 -191.05060547 370.00419922 -190.08203125 368.98828125 C-176.80611237 355.94681568 -157.54167063 351.82521752 -139.64868164 351.88647461 C-138.52599884 351.88632858 -137.40331604 351.88618256 -136.24661255 351.8860321 C-132.55110718 351.88672646 -128.85565277 351.89449653 -125.16015625 351.90234375 C-122.59183276 351.90420962 -120.02350891 351.90563273 -117.45518494 351.90663147 C-111.39573647 351.9100541 -105.3363089 351.91792846 -99.27686828 351.92798096 C-92.37478418 351.93918138 -85.47269919 351.94466243 -78.57060826 351.94967639 C-64.38039577 351.96011219 -50.19019853 351.97768709 -36 352 C-36.00227832 350.97733455 -36.00227832 350.97733455 -36.00460267 349.93400919 C-36.09413479 309.51722747 -36.16275625 269.10045855 -36.20426132 228.68359772 C-36.20926408 223.82959232 -36.21444138 218.97558713 -36.21972656 214.12158203 C-36.2207758 213.15524595 -36.22182505 212.18890987 -36.22290608 211.19329087 C-36.24030647 195.55102125 -36.27184216 179.90881049 -36.30861118 164.26657577 C-36.34603077 148.21357499 -36.36823801 132.16060502 -36.37635398 116.10756242 C-36.38183963 106.20371635 -36.39915928 96.30003667 -36.43166587 86.39624183 C-36.4528263 79.60280991 -36.45919658 72.80946389 -36.45400551 66.01600142 C-36.45144611 62.09778291 -36.45534128 58.17985495 -36.4768219 54.26168823 C-36.49636854 50.66995704 -36.49721806 47.07871023 -36.48359558 43.48695616 C-36.48112035 41.58157524 -36.49829956 39.67619954 -36.51632524 37.77090228 C-36.44061622 26.85276891 -33.50144856 18.07580541 -26 10 C-18.52810311 2.90580339 -10.20707006 0 0 0 Z M-171.6640625 403.15234375 C-186.18844454 425.27866844 -177 459.04290266 -177 481 C-72.06 481 32.88 481 141 481 C146.12156508 437.58392177 146.12156508 437.58392177 131 398 C122.49748729 389.92728463 112.30048991 387.38731365 100.84265137 387.49206543 C99.77520675 387.48582547 98.70776214 387.4795855 97.60797071 387.47315645 C94.06068251 387.45730719 90.51408917 387.46979952 86.96679688 387.48242188 C84.41162213 387.4769972 81.85645051 387.46987261 79.30128479 387.46118164 C73.09933259 387.44487323 66.89763419 387.44720816 60.69567883 387.4588322 C55.65215985 387.46789112 50.60869508 387.46907994 45.56517029 387.46473694 C44.84546735 387.46412401 44.1257644 387.46351107 43.38425228 387.46287957 C41.92187518 387.46160058 40.4594981 387.46030372 38.99712104 387.4589892 C25.30652999 387.4476018 11.61604634 387.46066814 -2.07452708 387.48219067 C-13.804133 387.50006 -25.53358053 387.49695538 -37.26318359 387.47851562 C-50.90708187 387.4570763 -64.55088618 387.44870027 -78.19479895 387.46096468 C-79.65158938 387.46223878 -81.10837983 387.46349627 -82.56517029 387.46473694 C-83.64013041 387.46566259 -83.64013041 387.46566259 -84.7368069 387.46660694 C-89.77024481 387.47005068 -94.80362277 387.46425266 -99.83705139 387.45481873 C-106.62024206 387.44238392 -113.40308878 387.45132391 -120.18626595 387.47439575 C-122.67143827 387.47967181 -125.15663582 387.47818806 -127.64179802 387.46934509 C-131.04241806 387.4583629 -134.44209113 387.47218677 -137.84265137 387.49206543 C-138.8186443 387.48314254 -139.79463723 387.47421966 -140.80020571 387.46502638 C-153.8613319 387.61242745 -163.68606942 392.83339026 -171.6640625 403.15234375 Z M-178 517 C-187.14218204 573.2469815 -187.14218204 573.2469815 -168 644 C-159.49748729 652.07271537 -149.30048991 654.61268635 -137.84265137 654.50793457 C-136.77520675 654.51417453 -135.70776214 654.5204145 -134.60797071 654.52684355 C-131.06068251 654.54269281 -127.51408917 654.53020048 -123.96679688 654.51757812 C-121.41162213 654.5230028 -118.85645051 654.53012739 -116.30128479 654.53881836 C-110.09933259 654.55512677 -103.89763419 654.55279184 -97.69567883 654.5411678 C-92.65215985 654.53210888 -87.60869508 654.53092006 -82.56517029 654.53526306 C-81.84546735 654.53587599 -81.1257644 654.53648893 -80.38425228 654.53712043 C-78.92187518 654.53839942 -77.4594981 654.53969628 -75.99712104 654.5410108 C-62.30652999 654.5523982 -48.61604634 654.53933186 -34.92547292 654.51780933 C-23.195867 654.49994 -11.46641947 654.50304462 0.26318359 654.52148438 C13.90708187 654.5429237 27.55088618 654.55129973 41.19479895 654.53903532 C42.65158938 654.53776122 44.10837983 654.53650373 45.56517029 654.53526306 C46.64013041 654.53433741 46.64013041 654.53433741 47.7368069 654.53339306 C52.77024481 654.52994932 57.80362277 654.53574734 62.83705139 654.54518127 C69.62024206 654.55761608 76.40308878 654.54867609 83.18626595 654.52560425 C85.67143827 654.52032819 88.15663582 654.52181194 90.64179802 654.53065491 C94.04241806 654.5416371 97.44209113 654.52781323 100.84265137 654.50793457 C101.8186443 654.51685746 102.79463723 654.52578034 103.80020571 654.53497362 C114.73518035 654.41156719 124.18662108 650.73722513 132 643 C158.68099123 610.53910039 141 540.34576181 141 517 C35.73 517 -69.54 517 -178 517 Z " fill="#3C3C3C" transform="translate(1014,45)"/>
<path d="M0 0 C0.33 0 0.66 0 1 0 C1.07183754 1.55308365 1.07183754 1.55308365 1.14512634 3.13754272 C1.59631404 12.8792332 2.05222241 22.62069271 2.51279354 32.3619442 C2.74944357 37.37042001 2.98441019 42.37896315 3.21557617 47.38769531 C3.43858552 52.21836732 3.66595592 57.04881585 3.89639473 61.87913895 C3.98368334 63.72511083 4.06938096 65.57115863 4.15348625 67.41727829 C4.27125097 69.99633883 4.39459064 72.57507524 4.51928711 75.15380859 C4.55309479 75.92272934 4.58690247 76.69165009 4.62173462 77.48387146 C4.75509484 81.37024478 4.75509484 81.37024478 6 85 C11.94 58.27 17.88 31.54 24 4 C24.33 4 24.66 4 25 4 C24.42263145 14.94130296 23.44793117 25.77811065 22.15234375 36.65625 C21.97403735 38.18033556 21.7961123 39.70446578 21.61854553 41.2286377 C21.1570819 45.1810125 20.69054917 49.13277177 20.22283936 53.08441162 C19.74371255 57.14054029 19.26954619 61.19724871 18.79492188 65.25390625 C17.86804655 73.16983589 16.93579789 81.08512021 16 89 C18.18868325 86.81131675 19.00388199 83.17739707 20.140625 80.3125 C20.45952698 79.51448975 20.77842896 78.71647949 21.10699463 77.89428711 C22.15726678 75.26388833 23.20370595 72.63198341 24.25 70 C24.97055528 68.19264938 25.69125948 66.38535813 26.41210938 64.578125 C32.99093644 48.07164987 39.51017007 31.54164552 46 15 C46.33 15 46.66 15 47 15 C46.4352918 20.29319089 45.53907526 25.15676991 44.05053711 30.28637695 C43.85531967 30.96547623 43.66010223 31.6445755 43.45896912 32.34425354 C42.82053175 34.56054147 42.17385868 36.77433769 41.52734375 38.98828125 C41.07973035 40.53889382 40.63276504 42.08969361 40.18641663 43.64067078 C39.01598211 47.70317148 37.83908927 51.76376761 36.66009521 55.8237915 C34.76849239 62.33870875 32.88302614 68.85537835 31.00470161 75.37413597 C30.34786156 77.6480247 29.68595067 79.92039518 29.02366638 82.19270325 C28.62225965 83.58194082 28.22104953 84.97123523 27.82006836 86.3605957 C27.29164589 88.17972221 27.29164589 88.17972221 26.75254822 90.03559875 C25.87697154 92.9748891 25.87697154 92.9748891 26 96 C26.93005859 94.37771484 26.93005859 94.37771484 27.87890625 92.72265625 C35.16485482 80.05491374 42.63837886 67.50483392 50.19287109 54.99560547 C51.91113911 52.14730116 53.62210082 49.2947208 55.33203125 46.44140625 C56.32510584 44.79402059 57.31856931 43.14686928 58.3125 41.5 C58.98732422 40.3696936 58.98732422 40.3696936 59.67578125 39.21655273 C62.77133321 34.11433339 62.77133321 34.11433339 65 33 C63.54956727 37.68601345 61.66047053 42.0625706 59.54296875 46.4765625 C59.20324036 47.19215836 58.86351196 47.90775421 58.51348877 48.64503479 C57.78510088 50.17855093 57.05520896 51.71135343 56.32394409 53.24349976 C54.40146494 57.27219294 52.49071438 61.30644876 50.578125 65.33984375 C50.19293198 66.15135391 49.80773895 66.96286407 49.41087341 67.79896545 C46.00811101 74.97119524 42.63555957 82.15717731 39.28921509 89.355896 C38.44785579 91.16522998 37.60419105 92.97349133 36.76049805 94.78173828 C36.26074463 95.85794434 35.76099121 96.93415039 35.24609375 98.04296875 C34.80966553 98.98164795 34.3732373 99.92032715 33.92358398 100.88745117 C32.93323667 102.76844079 32.93323667 102.76844079 33 104 C38.72221721 97.82382818 44.23003299 91.56898567 49.51953125 85.015625 C52.98947772 80.79704441 56.58513879 76.69231274 60.17822266 72.57861328 C64.33755394 67.80281187 68.35147163 62.93451249 72.29296875 57.9765625 C74 56 74 56 76 55 C74.45190264 59.5491576 71.93598984 63.23453199 69.1875 67.125 C68.19103138 68.55442625 67.19495413 69.98412538 66.19921875 71.4140625 C65.67634277 72.16204102 65.1534668 72.91001953 64.61474609 73.68066406 C61.88409615 77.60282531 59.19380595 81.55248568 56.5 85.5 C53.27934776 90.21571494 50.05422123 94.92791885 46.80078125 99.62109375 C46.29675781 100.34941406 45.79273438 101.07773437 45.2734375 101.828125 C44.32639141 103.19551774 43.37729714 104.56149509 42.42578125 105.92578125 C40.39334413 108.86290075 38.46484995 111.73477581 37 115 C37.59425781 114.45472656 38.18851563 113.90945313 38.80078125 113.34765625 C44.0501117 108.57182684 49.40886868 103.99748068 54.92578125 99.53515625 C59.28248009 95.94240206 63.53505296 92.23357097 67.78588867 88.51660156 C71.13123527 85.59628033 74.50595028 82.74342687 78 80 C78.66 80.33 79.32 80.66 80 81 C79.57589844 81.4125 79.15179687 81.825 78.71484375 82.25 C77.83505859 83.11625 77.83505859 83.11625 76.9375 84 C76.36902344 84.556875 75.80054688 85.11375 75.21484375 85.6875 C73.33271153 87.65261865 71.55881803 89.65717919 69.78515625 91.71875 C65.22657803 96.96254121 60.27071951 101.77884613 55.31640625 106.64453125 C49.1178351 112.77584847 43.42359564 119.17486716 38 126 C38.69448242 125.58226318 39.38896484 125.16452637 40.10449219 124.73413086 C42.74327496 123.14740179 45.3824887 121.56139243 48.02197266 119.97583008 C49.70116724 118.96684243 51.37988766 117.9570658 53.05859375 116.94726562 C60.33998539 112.57412213 67.65252929 108.261101 75 104 C75.33 104.66 75.66 105.32 76 106 C74.83723958 106.85677083 73.67447917 107.71354167 72.51171875 108.5703125 C71.75117187 109.13073242 70.990625 109.69115234 70.20703125 110.26855469 C68.51308615 111.51669021 66.81907463 112.76473561 65.125 114.01269531 C60.61954512 117.3318912 56.1152138 120.65259036 51.61328125 123.9765625 C50.75581299 124.60933105 49.89834473 125.24209961 49.01489258 125.89404297 C47.3619799 127.11387039 45.70946139 128.33423214 44.05737305 129.55517578 C43.30625244 130.10931152 42.55513184 130.66344727 41.78125 131.234375 C41.12189453 131.72131836 40.46253906 132.20826172 39.78320312 132.70996094 C38.21532014 133.84422897 36.61014546 134.92656969 35 136 C42.54860607 134.00853357 49.72118148 131.21772055 56.92919922 128.24975586 C57.68475098 127.94561768 58.44030273 127.64147949 59.21875 127.328125 C59.89873047 127.0487207 60.57871094 126.76931641 61.27929688 126.48144531 C63 126 63 126 65 127 C53.16838518 133.69898759 41.21266429 140.02358982 29 146 C30.32064453 145.7834375 30.32064453 145.7834375 31.66796875 145.5625 C32.82941406 145.376875 33.99085937 145.19125 35.1875 145 C36.33605469 144.814375 37.48460937 144.62875 38.66796875 144.4375 C41.50415393 144.06510523 44.14719564 143.91403979 47 144 C44.63486959 146.36513041 43.03419043 146.75357202 39.84375 147.69140625 C38.31041016 148.14870117 38.31041016 148.14870117 36.74609375 148.61523438 C35.67488281 148.92783203 34.60367187 149.24042969 33.5 149.5625 C31.38498232 150.18733374 29.27037728 150.81356643 27.15625 151.44140625 C25.74569336 151.85434937 25.74569336 151.85434937 24.30664062 152.27563477 C22.00485215 152.93145248 22.00485215 152.93145248 20 154 C21.65 154.33 23.3 154.66 25 155 C25 155.33 25 155.66 25 156 C23.75863281 156.12117187 22.51726562 156.24234375 21.23828125 156.3671875 C19.59631474 156.53607548 17.95438977 156.7053676 16.3125 156.875 C15.49587891 156.95363281 14.67925781 157.03226563 13.83789062 157.11328125 C9.49903944 157.57000243 6.05916365 158.358907 2 160 C-0.078125 159.828125 -0.078125 159.828125 -2.25 159.25 C-7.18679134 158.09458075 -12.09387937 157.44097497 -17.125 156.875 C-17.89618164 156.78766602 -18.66736328 156.70033203 -19.46191406 156.61035156 C-21.30757785 156.40361729 -23.15373915 156.20133239 -25 156 C-25 155.67 -25 155.34 -25 155 C-23.35 154.67 -21.7 154.34 -20 154 C-28.91 151.03 -37.82 148.06 -47 145 C-47 144.67 -47 144.34 -47 144 C-45.31229485 144.14343968 -43.62484514 144.28988569 -41.9375 144.4375 C-40.52791016 144.55931641 -40.52791016 144.55931641 -39.08984375 144.68359375 C-35.71570315 145.02911257 -32.35769622 145.52032911 -29 146 C-40.55 140.06 -52.1 134.12 -64 128 C-63.505 127.01 -63.505 127.01 -63 126 C-54.42 129.3 -45.84 132.6 -37 136 C-41.12033731 131.83650996 -41.12033731 131.83650996 -45.53125 128.23828125 C-46.1708667 127.76398682 -46.8104834 127.28969238 -47.46948242 126.80102539 C-48.47458862 126.06420532 -48.47458862 126.06420532 -49.5 125.3125 C-50.92358735 124.25576079 -52.34675817 123.19846026 -53.76953125 122.140625 C-54.47803223 121.61533203 -55.1865332 121.09003906 -55.91650391 120.54882812 C-59.02225577 118.2400761 -62.11051761 115.90941968 -65.1875 113.5625 C-66.19167969 112.80066406 -67.19585938 112.03882813 -68.23046875 111.25390625 C-71.01242494 108.98988831 -73.51119 106.57980854 -76 104 C-72.0061917 105.46829832 -68.50049665 107.3717588 -64.8515625 109.5546875 C-64.27594574 109.89750763 -63.70032898 110.24032776 -63.10726929 110.59353638 C-61.27781016 111.68398904 -59.4513222 112.77930326 -57.625 113.875 C-55.80861195 114.96048509 -53.99161752 116.04494885 -52.17449951 117.12921143 C-50.45879193 118.15299686 -48.74354982 119.17756225 -47.02832031 120.20214844 C-43.7065435 122.1742191 -40.36551643 124.10379458 -37 126 C-37.85722656 125.154375 -38.71445313 124.30875 -39.59765625 123.4375 C-45.02221973 118.06372237 -50.38393501 112.71595776 -55.328125 106.890625 C-58.00778388 103.86035655 -60.92206485 101.07008544 -63.80078125 98.23046875 C-66.44941052 95.54420354 -68.9044123 92.72549244 -71.359375 89.86328125 C-73.78335709 87.11033016 -76.37509926 84.56087877 -79 82 C-78.505 81.01 -78.505 81.01 -78 80 C-72.35207977 84.52270595 -66.82357894 89.09892732 -61.5 94 C-56.99858542 98.14181513 -52.35195362 102.0406998 -47.59375 105.8828125 C-43.98128724 108.83153963 -40.48672917 111.90479866 -37 115 C-43.46704162 104.64625311 -50.2802177 94.52342964 -57.0625 84.375 C-58.23253058 82.6224684 -59.4024532 80.86986472 -60.57226562 79.1171875 C-62.72858127 75.88676107 -64.88553533 72.65676301 -67.04321289 69.42724609 C-70.03184322 64.95351955 -73.01639667 60.47708027 -76 56 C-75.01 55.505 -75.01 55.505 -74 55 C-73.47792969 55.64324219 -72.95585938 56.28648437 -72.41796875 56.94921875 C-68.20698251 62.1189234 -63.95433208 67.2420135 -59.625 72.3125 C-55.30873344 77.37738322 -51.16502274 82.55638547 -47.0793457 87.80834961 C-42.52104342 93.65327611 -37.78161818 99.33673855 -33 105 C-36.64191267 96.01452795 -40.59512674 87.19542246 -44.64651489 78.38916016 C-45.70591217 76.08495321 -46.76151028 73.77903872 -47.81616211 71.47265625 C-50.95439844 64.61330865 -54.1049941 57.76060536 -57.3046875 50.9296875 C-57.77817627 49.91116699 -58.25166504 48.89264648 -58.73950195 47.84326172 C-59.59965222 45.99470848 -60.4675714 44.14974349 -61.34448242 42.30908203 C-61.71677979 41.50583496 -62.08907715 40.70258789 -62.47265625 39.875 C-62.79500244 39.19179688 -63.11734863 38.50859375 -63.44946289 37.8046875 C-64 36 -64 36 -63 33 C-60.45785555 37.33305322 -57.91626398 41.66643036 -55.375 46 C-54.99306488 46.65126862 -54.61112976 47.30253723 -54.21762085 47.97354126 C-48.34313108 57.99158258 -42.48209688 68.01730648 -36.64404297 78.05664062 C-33.14426742 84.06728793 -29.59052645 90.04315853 -26 96 C-28.54940295 85.61084294 -31.25708654 75.28185683 -34.14453125 64.98046875 C-34.52277554 63.62058528 -34.90058912 62.26058195 -35.27799988 60.90046692 C-36.85681569 55.21089357 -38.43750467 49.52187707 -40.03198242 43.83666992 C-41.01645739 40.32541052 -41.99271657 36.81195777 -42.96353722 33.2968998 C-43.33247415 31.96716578 -43.70448812 30.63828144 -44.07966042 29.3102932 C-44.59968981 27.46839539 -45.10835464 25.62330029 -45.61645508 23.77807617 C-45.90861404 22.73157394 -46.20077301 21.68507172 -46.50178528 20.6068573 C-47 18 -47 18 -46 15 C-42.43470602 23.43110799 -39.05202154 31.92003543 -35.76953125 40.46484375 C-35.28837482 41.71372722 -34.80706363 42.96255108 -34.3256073 44.21131897 C-33.07395285 47.45885784 -31.82417793 50.7071165 -30.57489014 53.95556641 C-28.80733152 58.55056789 -27.03711967 63.14454807 -25.26725769 67.73866272 C-24.32852392 70.17583351 -23.39028153 72.61319365 -22.45259094 75.05076599 C-21.81634041 76.70387535 -21.81634041 76.70387535 -21.16723633 78.39038086 C-20.79593094 79.35568222 -20.42462555 80.32098358 -20.04206848 81.3155365 C-19.04500172 83.88407147 -18.02818186 86.44378154 -17 89 C-17.54357617 79.02313619 -18.32149825 69.11009579 -19.43266678 59.17708397 C-19.67167887 57.03728174 -19.90536744 54.8969518 -20.13778687 52.75642395 C-20.79781068 46.68536341 -21.46645199 40.61526747 -22.13964844 34.5456543 C-22.55477451 30.79956491 -22.96359214 27.05283023 -23.36854172 23.30562782 C-23.52316432 21.8871689 -23.68026862 20.46897818 -23.83992386 19.05107689 C-24.06145391 17.0831276 -24.27434512 15.11421159 -24.48681641 13.14526367 C-24.61037506 12.02770187 -24.73393372 10.91014008 -24.86123657 9.75871277 C-25 7 -25 7 -24 4 C-22.39283063 8.5224029 -21.2614899 13.05494929 -20.30419922 17.74951172 C-20.14785004 18.50141281 -19.99150085 19.2533139 -19.83041382 20.02799988 C-19.31840903 22.49453288 -18.81151645 24.96208624 -18.3046875 27.4296875 C-17.94913785 29.14753651 -17.59326769 30.86531921 -17.23709106 32.58303833 C-16.30342111 37.09012308 -15.37409272 41.59809227 -14.44567871 46.10626221 C-13.49636434 50.71201066 -12.54292858 55.31690559 -11.58984375 59.921875 C-9.72253766 68.94708809 -7.85981903 77.97324131 -6 87 C-4.49976877 66.98062734 -3.29133251 46.95849556 -2.24731445 26.91040039 C-2.06246742 23.37889905 -1.87325838 19.84765162 -1.68359375 16.31640625 C-1.62940781 15.24886612 -1.57522186 14.18132599 -1.51939392 13.08143616 C-1.46586258 12.09106857 -1.41233124 11.10070099 -1.35717773 10.08032227 C-1.31213608 9.21657486 -1.26709442 8.35282745 -1.22068787 7.46290588 C-0.9928004 4.91965146 -0.54559413 2.49279267 0 0 Z M-16 92 C-15 94 -15 94 -15 94 Z M24 97 C25 99 25 99 25 99 Z " fill="#3C3C3C" transform="translate(1533,427)"/>
<path d="M0 0 C0.33 0 0.66 0 1 0 C1.29614812 5.08308254 1.58707786 10.16644611 1.875 15.25 C1.91946259 16.03344788 1.96392517 16.81689575 2.00973511 17.62408447 C2.58044317 27.739129 3.09740359 37.8551982 3.54296875 47.9765625 C3.58681702 48.96950317 3.63066528 49.96244385 3.67584229 50.98547363 C3.89044845 55.87322642 4.09950004 60.76115543 4.30224609 65.64941406 C4.37980719 67.45117513 4.45744041 69.2529331 4.53515625 71.0546875 C4.56739792 71.87200348 4.59963959 72.68931946 4.63285828 73.53140259 C4.66643936 74.29689423 4.70002045 75.06238586 4.73461914 75.85107422 C4.7618959 76.51082245 4.78917267 77.17057068 4.817276 77.85031128 C5.04976501 80.58546925 5.54872133 83.29232797 6 86 C11.94 58.94 17.88 31.88 24 4 C24.33 4 24.66 4 25 4 C25.07524335 9.81221498 24.87008854 15.41533374 24.17382812 21.18188477 C24.08604599 21.94397751 23.99826385 22.70607025 23.90782166 23.49125671 C23.62049355 25.97523328 23.32594485 28.45829387 23.03125 30.94140625 C22.82901836 32.67727009 22.62724335 34.41318718 22.42590332 36.14915466 C21.89779592 40.6919164 21.3635344 45.23393338 20.82794189 49.77581787 C20.28127995 54.42107084 19.74050508 59.06700875 19.19921875 63.71289062 C18.13853873 72.8092696 17.07134911 81.90487187 16 91 C16.34634491 90.13413773 16.69268982 89.26827545 17.04953003 88.37617493 C26.69968669 64.25078328 36.34984334 40.12539164 46 16 C47.57461794 19.97651842 46.34588624 23.30254127 45.18579102 27.21533203 C44.98111206 27.93446777 44.77643311 28.65360352 44.56555176 29.39453125 C43.88751861 31.76836701 43.19569587 34.13795286 42.50390625 36.5078125 C42.03071481 38.15613389 41.55847317 39.80472821 41.08714294 41.45358276 C39.84457542 45.79210164 38.59064088 50.12724937 37.3338623 54.46166992 C35.32263259 61.40596646 33.32949493 68.35548264 31.33476067 75.3045311 C30.6354374 77.7351127 29.93182482 80.16441965 29.22743225 82.59353638 C28.79943008 84.07682616 28.37148408 85.56013216 27.94360352 87.04345703 C27.74566696 87.72193695 27.54773041 88.40041687 27.34379578 89.09945679 C26.33555157 92.49500896 26.33555157 92.49500896 26 96 C26.42595459 95.26813477 26.85190918 94.53626953 27.29077148 93.78222656 C35.52694255 79.64549863 43.81989155 65.54701868 52.3125 51.5625 C52.67189667 50.96981323 53.03129333 50.37712646 53.40158081 49.76647949 C56.83671366 44.10545787 60.30171505 38.49240701 64 33 C64.33 33.66 64.66 34.32 65 35 C64.02368272 37.42945853 62.98186185 39.73691631 61.8359375 42.0859375 C61.49210022 42.80692123 61.14826294 43.52790497 60.79400635 44.27073669 C59.66135371 46.64225386 58.51805452 49.00848148 57.375 51.375 C56.59460528 53.00565634 55.81515142 54.63676326 55.03662109 56.26831055 C53.85055592 58.75381815 52.66401105 61.23907962 51.47463989 63.7230072 C47.80238212 71.39390477 44.20098488 79.09634015 40.625 86.8125 C40.09696777 87.94800293 39.56893555 89.08350586 39.02490234 90.25341797 C36.60471966 95.47156407 34.22475358 100.69540048 32 106 C33.11711342 104.67977505 34.2342233 103.35954712 35.35131836 102.03930664 C36.34035527 100.87047489 37.32945205 99.70169379 38.31860352 98.53295898 C40.79970404 95.60124711 43.28009088 92.66894334 45.7578125 89.734375 C50.01542355 84.69391539 54.28375869 79.66382226 58.5871582 74.66235352 C64.15876769 68.18676166 69.6299936 61.64470489 75 55 C75.33 55.66 75.66 56.32 76 57 C60.28201562 80.76737332 60.28201562 80.76737332 52.52734375 91.46484375 C47.19356691 98.86373271 42.1275307 106.45752092 37 114 C40.63401577 112.28877436 43.12637103 110.20066113 46.0625 107.4375 C50.54738535 103.27178348 55.17635542 99.36086196 59.94140625 95.515625 C66.07114593 90.47405111 72.02194007 85.21970955 78 80 C78.66 80.33 79.32 80.66 80 81 C72.9418605 88.79418385 65.70435165 96.35074111 58.23168945 103.7487793 C54.5327844 107.42467703 50.99309769 111.16059699 47.62890625 115.1484375 C44.28319445 118.95147681 40.61683123 122.45698165 37 126 C49.73335169 118.78144499 62.36429358 111.38769919 75 104 C75.33 104.66 75.66 105.32 76 106 C75.53440674 106.3403125 75.06881348 106.680625 74.58911133 107.03125 C61.60591904 116.53214829 48.76827665 126.2124575 36 136 C36.55872803 135.80365967 37.11745605 135.60731934 37.69311523 135.4050293 C40.27431926 134.49845098 42.85590715 133.59297046 45.4375 132.6875 C46.31599609 132.37876953 47.19449219 132.07003906 48.09960938 131.75195312 C53.71646293 129.78294542 59.34725998 127.86351219 65 126 C65 126.66 65 127.32 65 128 C53.12 133.94 41.24 139.88 29 146 C37.91 145.01 37.91 145.01 47 144 C44.54804894 146.45195106 42.63887026 146.91106083 39.3359375 147.9453125 C38.21445312 148.29980469 37.09296875 148.65429688 35.9375 149.01953125 C34.1740625 149.56673828 34.1740625 149.56673828 32.375 150.125 C31.19164062 150.49753906 30.00828125 150.87007812 28.7890625 151.25390625 C25.86106285 152.17480937 22.93137624 153.08991361 20 154 C21.65 154.33 23.3 154.66 25 155 C25 155.33 25 155.66 25 156 C24.39003174 156.08564209 23.78006348 156.17128418 23.15161133 156.25952148 C20.37169549 156.65069064 17.59209736 157.04407444 14.8125 157.4375 C13.37293945 157.63956055 13.37293945 157.63956055 11.90429688 157.84570312 C10.97294922 157.97783203 10.04160156 158.10996094 9.08203125 158.24609375 C7.80162964 158.42676392 7.80162964 158.42676392 6.49536133 158.61108398 C3.96874709 158.97438115 3.96874709 158.97438115 1.38769531 159.60131836 C-2.06784153 160.17830115 -4.67001703 159.01545222 -8 158 C-10.80075029 157.5149353 -13.61315753 157.1902514 -16.4375 156.875 C-17.53481445 156.74544922 -17.53481445 156.74544922 -18.65429688 156.61328125 C-20.43560094 156.40371607 -22.21772281 156.20112132 -24 156 C-22.02 155.01 -22.02 155.01 -20 154 C-28.91 151.03 -37.82 148.06 -47 145 C-47 144.67 -47 144.34 -47 144 C-45.31229485 144.14343968 -43.62484514 144.28988569 -41.9375 144.4375 C-40.52791016 144.55931641 -40.52791016 144.55931641 -39.08984375 144.68359375 C-35.71570315 145.02911257 -32.35769622 145.52032911 -29 146 C-40.55 140.06 -52.1 134.12 -64 128 C-63.505 127.01 -63.505 127.01 -63 126 C-54.42 129.3 -45.84 132.6 -37 136 C-40.20482576 132.79517424 -42.85894607 130.20291175 -46.40625 127.58203125 C-47.22706055 126.97174072 -48.04787109 126.3614502 -48.89355469 125.73266602 C-50.18374512 124.78218384 -50.18374512 124.78218384 -51.5 123.8125 C-53.28693258 122.48501315 -55.07338985 121.15688625 -56.859375 119.828125 C-58.16745117 118.85649414 -58.16745117 118.85649414 -59.50195312 117.86523438 C-64.71559704 113.9723259 -69.85850419 109.98747394 -75 106 C-74.505 105.01 -74.505 105.01 -74 104 C-73.19892822 104.48879639 -72.39785645 104.97759277 -71.57250977 105.48120117 C-68.55969495 107.3183895 -65.54591372 109.1539723 -62.53149414 110.98852539 C-61.23456249 111.77826269 -59.93800331 112.56861207 -58.6418457 113.35961914 C-51.50496522 117.71446593 -44.36487555 122.03676632 -37 126 C-37.78503906 125.2265625 -38.57007813 124.453125 -39.37890625 123.65625 C-44.55593553 118.53201388 -49.6347207 113.40969704 -54.359375 107.859375 C-56.78723887 105.10779595 -59.41749919 102.57353926 -62.03125 100 C-64.54455606 97.4468002 -66.85768588 94.74763583 -69.19140625 92.03125 C-72.30504645 88.53428909 -75.65139835 85.27032265 -79 82 C-78.505 81.01 -78.505 81.01 -78 80 C-72.35207977 84.52270595 -66.82357894 89.09892732 -61.5 94 C-56.99858542 98.14181513 -52.35195362 102.0406998 -47.59375 105.8828125 C-43.98128724 108.83153963 -40.48672917 111.90479866 -37 115 C-41.70990615 107.53351736 -46.52597889 100.14769635 -51.4375 92.8125 C-52.83206724 90.72528446 -54.22659729 88.63804408 -55.62109375 86.55078125 C-56.33507324 85.4829541 -57.04905273 84.41512695 -57.78466797 83.31494141 C-61.52815599 77.71332356 -65.26366767 72.10639212 -69 66.5 C-70.35413073 64.46872604 -71.708294 62.43747378 -73.0625 60.40625 C-74.04166667 58.9375 -75.02083333 57.46875 -76 56 C-75.01 56 -74.02 56 -73 56 C-71.24858304 57.98026064 -69.68837651 59.9406946 -68.125 62.0625 C-64.0451619 67.43394167 -59.82547953 72.61868067 -55.375 77.6875 C-47.61132754 86.55717686 -40.19084789 95.65776517 -33 105 C-36.14636253 96.71983311 -39.81253754 88.69601917 -43.51394653 80.65429688 C-44.57803312 78.34123483 -45.63798758 76.02631683 -46.69702148 73.7109375 C-49.94390992 66.61790965 -53.20965862 59.53494417 -56.53125 52.4765625 C-57.30746704 50.81681396 -57.30746704 50.81681396 -58.09936523 49.12353516 C-59.05406412 47.08542111 -60.0167642 45.05103033 -60.98852539 43.02099609 C-61.40610107 42.12719238 -61.82367676 41.23338867 -62.25390625 40.3125 C-62.61814697 39.54550781 -62.9823877 38.77851563 -63.35766602 37.98828125 C-64 36 -64 36 -63 33 C-55.64007794 45.41824959 -48.31927911 57.85832953 -41.05371094 70.33203125 C-36.06069857 78.9027583 -31.0363404 87.45468591 -26 96 C-29.45687248 80.21054158 -33.85223324 64.66596397 -38.1552124 49.09185791 C-39.15657199 45.46487081 -40.15428596 41.83688114 -41.15234375 38.20898438 C-43.09807649 31.13835914 -45.04772774 24.06882276 -47 17 C-46.34 16.67 -45.68 16.34 -45 16 C-44.79670074 16.53108368 -44.59340149 17.06216736 -44.38394165 17.60934448 C-30.71789164 53.31462057 -30.71789164 53.31462057 -17 89 C-17.57741 77.78161603 -18.44750555 66.63490285 -19.62890625 55.46484375 C-19.78474793 53.96459816 -19.94025341 52.46431762 -20.09544373 50.96400452 C-20.49817348 47.0791462 -20.90536273 43.19476888 -21.31359863 39.31048584 C-21.73203164 35.32121241 -22.14608523 31.3314845 -22.56054688 27.34179688 C-23.36949898 19.56075584 -24.18317969 11.78021944 -25 4 C-24.34 4.33 -23.68 4.66 -23 5 C-22.30072753 7.52220105 -21.72810652 9.98769535 -21.21240234 12.54907227 C-20.96324821 13.73435013 -20.96324821 13.73435013 -20.70906067 14.943573 C-20.15987829 17.56622662 -19.62289956 20.19122577 -19.0859375 22.81640625 C-18.70839792 24.63117244 -18.3301029 26.44578161 -17.95108032 28.26023865 C-16.95385544 33.04434257 -15.96694564 37.83051868 -14.9821167 42.6171875 C-13.97602972 47.4980293 -12.96027406 52.3768568 -11.9453125 57.25585938 C-9.95403469 66.8352851 -7.97364038 76.4169261 -6 86 C-5.26190707 81.22898871 -4.79052772 76.52720673 -4.53515625 71.70703125 C-4.49760223 71.01499603 -4.46004822 70.32296082 -4.4213562 69.60995483 C-4.34088889 68.11995635 -4.26182817 66.62988135 -4.18405151 65.13973999 C-4.06061154 62.77634323 -3.93326207 60.41318478 -3.80493164 58.05004883 C-3.5331923 53.03354686 -3.26624048 48.01679642 -3 43 C-2.69127818 37.18272327 -2.38055391 31.36556796 -2.06466675 25.54867554 C-1.93976727 23.22959762 -1.81856267 20.91034585 -1.69750977 18.59106445 C-1.6201364 17.15835605 -1.54259008 15.72565697 -1.46484375 14.29296875 C-1.399021 13.0505542 -1.33319824 11.80813965 -1.26538086 10.52807617 C-0.99886645 6.98493021 -0.54308452 3.5104826 0 0 Z M-16 91 C-15 94 -15 94 -15 94 Z M24 97 C25 99 25 99 25 99 Z " fill="#3C3C3C" transform="translate(468,427)"/>
<path d="M0 0 C5.94 0 11.88 0 18 0 C20.16479413 7.89379586 22.32952213 15.78760985 24.49413776 23.68145466 C25.49955091 27.34795022 26.5049916 31.01443823 27.51049805 34.6809082 C28.4831574 38.22760898 29.45574074 41.77433059 30.42827415 45.3210659 C30.79698233 46.66565868 31.16571664 48.01024428 31.53447914 49.35482216 C33.69564536 57.23492019 35.852758 65.11609558 38 73 C42.89586527 58.20034067 46.77214376 43.1286067 50.75 28.0625 C52.09486447 22.96895819 53.44460672 17.87673899 54.796875 12.78515625 C55.2577652 11.03079002 55.2577652 11.03079002 55.72796631 9.24098206 C56.15411224 7.63681679 56.15411224 7.63681679 56.58886719 6.00024414 C56.83803894 5.05589005 57.08721069 4.11153595 57.34393311 3.13856506 C58 1 58 1 59 0 C64.94 0 70.88 0 77 0 C77 28.71 77 57.42 77 87 C73.7 87 70.4 87 67 87 C66.67 63.9 66.34 40.8 66 17 C64.64003906 21.88554687 63.28007813 26.77109375 61.87890625 31.8046875 C61.01780339 34.89459443 60.15658045 37.98446687 59.29492188 41.07421875 C57.92647125 45.98127986 56.55847349 50.88846414 55.19311523 55.79638672 C54.09264139 59.75204693 52.99018473 63.70714952 51.88633537 67.66186905 C51.46498489 69.17278367 51.04435627 70.68389979 50.62445259 72.19521713 C50.03741818 74.30759904 49.44785001 76.41925798 48.85766602 78.53076172 C48.52235367 79.73433319 48.18704132 80.93790466 47.84156799 82.177948 C47 85 47 85 46 87 C41.05 87 36.1 87 31 87 C28.14249488 79.83864653 26.06828638 72.51325289 23.98828125 65.09375 C23.65711304 63.92231445 23.32594482 62.75087891 22.98474121 61.54394531 C21.75692785 57.19701621 20.53506073 52.84840932 19.3125 48.5 C15.1978125 33.8975 15.1978125 33.8975 11 19 C10.67 41.44 10.34 63.88 10 87 C6.7 87 3.4 87 0 87 C0 58.29 0 29.58 0 0 Z " fill="#3C3C3C" transform="translate(765,2106)"/>
<path d="M0 0 C5.94 0 11.88 0 18 0 C24.78652527 24.30153623 31.45138978 48.63327413 38 73 C40.44905965 65.9514286 42.48351126 58.82852409 44.4349556 51.6274128 C44.98759574 49.58819405 45.54339312 47.54985786 46.09994507 45.51170349 C47.27777839 41.19606659 48.45154547 36.8793292 49.625 32.5625 C50.99272543 27.53258931 52.36212398 22.50314219 53.73484421 17.47459221 C54.28224597 15.46641313 54.82705484 13.45754245 55.37173462 11.44862366 C55.7023288 10.23653732 56.03292297 9.02445099 56.37353516 7.77563477 C56.6642691 6.70579849 56.95500305 5.63596222 57.25454712 4.53370667 C58 2 58 2 59 0 C64.94 0 70.88 0 77 0 C77 28.71 77 57.42 77 87 C73.7 87 70.4 87 67 87 C66.67 64.23 66.34 41.46 66 18 C64.64003906 22.81335937 63.28007813 27.62671875 61.87890625 32.5859375 C61.01779866 35.63027111 60.15657351 38.67457046 59.29492188 41.71875 C57.92649606 46.55338478 56.55851352 51.38814199 55.19311523 56.22363281 C54.09260396 60.12093515 52.99015133 64.01768345 51.88633537 67.91405106 C51.46500007 69.40263826 51.04437142 70.89142566 50.62445259 72.38041306 C50.03737852 74.46165849 49.44782361 76.54218578 48.85766602 78.62255859 C48.52235367 79.80836517 48.18704132 80.99417175 47.84156799 82.21591187 C47 85 47 85 46 87 C41.05 87 36.1 87 31 87 C28.38285181 79.40633199 26.16431805 71.72649503 23.98828125 63.99609375 C23.65711304 62.82566528 23.32594482 61.65523682 22.98474121 60.44934082 C21.75836789 56.11270831 20.53564549 51.77504402 19.3125 47.4375 C16.569375 37.723125 13.82625 28.00875 11 18 C10.67 40.77 10.34 63.54 10 87 C6.7 87 3.4 87 0 87 C0 58.29 0 29.58 0 0 Z " fill="#3C3C3C" transform="translate(1504,2106)"/>
<path d="M0 0 C3.63 0 7.26 0 11 0 C12.10318057 7.43401109 13.20586317 14.86809583 14.30810547 22.30224609 C14.68232106 24.82570337 15.05666735 27.34914128 15.43115234 29.87255859 C15.97268366 33.52175764 16.51370215 37.17103248 17.0546875 40.8203125 C17.2286908 41.99168762 17.40269409 43.16306274 17.58197021 44.36993408 C18.63600345 51.48164419 19.65842645 58.59591729 20.60986328 65.72216797 C20.89066262 68.02282541 20.89066262 68.02282541 22 70 C22.18570053 69.18202942 22.37140106 68.36405884 22.56272888 67.52130127 C24.31320568 59.8111872 26.06409883 52.10116783 27.81545925 44.39125443 C28.71582568 40.42755509 29.6160313 36.46381937 30.51586914 32.5 C31.38433089 28.67442089 32.25321542 24.84893803 33.12239265 21.02352142 C33.45385853 19.56433275 33.78517227 18.10510952 34.1163311 16.64585114 C34.58032472 14.60137404 35.04485996 12.5570207 35.50952148 10.51269531 C35.77377426 9.34909485 36.03802704 8.18549438 36.31028748 6.9866333 C36.84941842 4.65205711 37.41887998 2.32448008 38 0 C42.95 0 47.9 0 53 0 C58.28 23.76 63.56 47.52 69 72 C72.24978319 49.05351717 72.24978319 49.05351717 75.49194336 26.10595703 C76.12219238 21.67163086 76.12219238 21.67163086 76.41798401 19.59689331 C76.62422837 18.14549702 76.82908445 16.69390305 77.03285217 15.24215698 C77.34148584 13.0452396 77.65449707 10.84898667 77.96850586 8.65283203 C78.23164833 6.79418015 78.23164833 6.79418015 78.50010681 4.89797974 C79 2 79 2 80 0 C83.63 0 87.26 0 91 0 C90.27935493 9.57080235 88.83612381 18.97832862 87.3125 28.4453125 C87.04707737 30.10868116 86.78186285 31.77208304 86.5168457 33.43551636 C85.96450296 36.89685751 85.40947946 40.35775513 84.85253906 43.81835938 C84.13766574 48.2618701 83.42991138 52.70648163 82.72413635 57.15144539 C82.17975032 60.57470404 81.63152453 63.99733907 81.0821228 67.41979599 C80.81934175 69.05992948 80.5578031 70.70026251 80.29751587 72.34079361 C79.93534817 74.61993826 79.56799841 76.89818677 79.19921875 79.17626953 C78.99127686 80.47323761 78.78333496 81.77020569 78.5690918 83.10647583 C78 86 78 86 77 87 C74.30345146 87.07319621 71.63308542 87.09242537 68.9375 87.0625 C68.17888672 87.05798828 67.42027344 87.05347656 66.63867188 87.04882812 C64.75908129 87.0370068 62.87953101 87.01907078 61 87 C59.80758614 81.85529232 58.62073841 76.70932416 57.4375 71.5625 C57.25903534 70.78666565 57.08057068 70.0108313 56.896698 69.21148682 C53.82998576 55.85633342 50.93393947 42.47041214 48.17163086 29.04907227 C47.96236465 28.04259895 47.96236465 28.04259895 47.74887085 27.01579285 C47.37280713 25.20691406 47.00083185 23.39718666 46.62915039 21.58740234 C46.25812308 19.08478481 46.25812308 19.08478481 45 18 C37.575 52.155 37.575 52.155 30 87 C24.39 87 18.78 87 13 87 C11.44680042 77.57706963 9.89835817 68.15338997 8.35799503 58.72835255 C7.6423572 54.35072748 6.92473938 49.97344727 6.20239258 45.59692383 C5.50377396 41.36368955 4.8106229 37.12959134 4.12106133 32.89487267 C3.85866379 31.28926165 3.59438438 29.68395687 3.32808113 28.07898903 C1.7759597 18.71591237 0.57855066 9.48763124 0 0 Z " fill="#3C3C3C" transform="translate(84,2106)"/>
<path d="M0 0 C5.94 0 11.88 0 18 0 C20.45111526 5.27068176 22.90108056 10.54187479 25.34863281 15.81420898 C26.17389442 17.59117338 26.99970335 19.36788373 27.82617188 21.14428711 C35.68493601 38.03772651 43.33040796 55.01733191 51 72 C51.33 48.24 51.66 24.48 52 0 C55.63 0 59.26 0 63 0 C63 28.71 63 57.42 63 87 C57.06 87 51.12 87 45 87 C44.04222656 84.83050781 43.08445312 82.66101562 42.09765625 80.42578125 C32.26467034 58.1889353 22.18914555 36.07648203 12 14 C11.67 38.09 11.34 62.18 11 87 C7.37 87 3.74 87 0 87 C0 58.29 0 29.58 0 0 Z " fill="#3C3C3C" transform="translate(1023,2106)"/>
<path d="M0 0 C5.94 0 11.88 0 18 0 C27.13667575 19.87712969 36.17831547 39.79145596 45.03320312 59.79589844 C45.52331627 60.90296394 45.52331627 60.90296394 46.02333069 62.03239441 C46.6347786 63.41422924 47.24568057 64.79630583 47.85594177 66.17866516 C49.37414506 69.61443634 49.37414506 69.61443634 51 73 C51.33 48.91 51.66 24.82 52 0 C55.63 0 59.26 0 63 0 C63 28.71 63 57.42 63 87 C57.06 87 51.12 87 45 87 C33.79280161 62.75472427 22.80310465 38.42864206 12 14 C11.67 38.09 11.34 62.18 11 87 C7.37 87 3.74 87 0 87 C0 58.29 0 29.58 0 0 Z " fill="#3C3C3C" transform="translate(1754,2106)"/>
<path d="M0 0 C6.70409059 5.00828353 10.98555028 11.29480416 12.45703125 19.5703125 C12.70814587 21.70646089 12.86371204 23.85346463 13 26 C9.37 26 5.74 26 2 26 C1.4121875 23.710625 1.4121875 23.710625 0.8125 21.375 C-1.11812591 15.02638362 -3.34726883 11.53042183 -9.25 8.125 C-15.69950174 6.19014948 -21.82708108 6.15925783 -28.0859375 8.83984375 C-35.13601731 13.11305539 -38.75825611 20.31057742 -41 28 C-43.45598401 40.11618779 -42.94734054 53.49500103 -36.75 64.4375 C-33.36634056 69.34431732 -28.92370615 72.90178481 -23 74 C-16.67032377 74.55132858 -11.64141348 74.20786257 -6 71 C-1.22557437 66.75606611 1.17277363 63.71904029 1.625 57.3125 C1.810625 54.6828125 1.810625 54.6828125 2 52 C-4.93 52 -11.86 52 -19 52 C-19 48.7 -19 45.4 -19 42 C-8.77 42 1.46 42 12 42 C12 55.86 12 69.72 12 84 C9.36 84 6.72 84 4 84 C3.505 80.535 3.505 80.535 3 77 C2.50371094 77.40992187 2.00742188 77.81984375 1.49609375 78.2421875 C-6.80552069 84.82676973 -14.52856059 85.96527855 -25 85 C-33.82742231 83.08299151 -40.40149413 78.93976715 -45.71875 71.640625 C-54.55973225 57.68574125 -56.15126253 41.01474229 -52.8125 25 C-49.76719154 13.54792453 -43.81396086 5.31979943 -33.59765625 -0.703125 C-23.04402009 -5.97200802 -10.3412312 -5.79958464 0 0 Z " fill="#3C3C3C" transform="translate(1318,2109)"/>
<path d="M0 0 C0.70108887 0.00418945 1.40217773 0.00837891 2.12451172 0.01269531 C10.18273207 0.18799564 16.88449141 2.06479959 23.125 7.3125 C28.72278813 14.53349499 29.25805149 20.3980503 29.125 29.3125 C25.495 29.3125 21.865 29.3125 18.125 29.3125 C17.63671875 26.578125 17.1484375 23.84375 16.66015625 21.109375 C16.48355469 20.18640625 16.30695313 19.2634375 16.125 18.3125 C15.98707031 17.55839844 15.84914063 16.80429688 15.70703125 16.02734375 C15.25271956 14.02840367 15.25271956 14.02840367 12.75 13.125 C11.88375 12.856875 11.0175 12.58875 10.125 12.3125 C9.135 11.9825 8.145 11.6525 7.125 11.3125 C-0.14556164 10.80159567 -6.46799745 10.6106763 -12.875 14.3125 C-15.34613384 16.78363384 -15.56242606 18.80721248 -15.90234375 22.21875 C-15.85866321 25.56343162 -14.73667364 27.58204533 -12.875 30.3125 C-9.28590424 33.54586237 -5.76711093 35.42051815 -1.3125 37.25 C-0.39658081 37.63502686 -0.39658081 37.63502686 0.5378418 38.02783203 C3.46834607 39.25441345 6.41314246 40.41969175 9.390625 41.52734375 C16.92764292 44.39720826 24.69800264 48.19677027 28.3203125 55.83203125 C30.81270941 63.51490522 30.52702789 70.92360265 27.2265625 78.328125 C23.5972846 84.24822371 17.33295738 87.22231962 10.7578125 88.92578125 C-0.66930752 90.60424547 -10.81176822 89.52038276 -20.8125 83.5625 C-27.41261854 76.36237068 -27.9852118 68.68050294 -27.875 59.3125 C-24.245 59.3125 -20.615 59.3125 -16.875 59.3125 C-16.72804688 60.52486328 -16.72804688 60.52486328 -16.578125 61.76171875 C-15.65611789 69.94707846 -15.65611789 69.94707846 -10.875 76.3125 C-4.83497637 79.4835124 3.00237794 79.09494342 9.57421875 77.84765625 C13.07563439 76.75386837 14.95428138 75.53495153 17.1875 72.625 C18.31312917 68.64777694 18.60376968 65.18005147 17.125 61.3125 C13.7188348 56.38898579 10.62009088 54.16229597 4.9375 52.1875 C4.27548584 51.93871094 3.61347168 51.68992187 2.93139648 51.43359375 C1.00163252 50.70960989 -0.93456159 50.00728878 -2.875 49.3125 C-12.36132553 45.88829159 -21.32279867 41.63569768 -25.953125 32.08984375 C-27.90451392 26.2108712 -27.89122438 19.03008031 -26.2578125 13.0546875 C-23.30099096 7.21954411 -17.62262549 3.27761576 -11.60546875 1.1640625 C-7.6860359 0.26936474 -3.99852606 -0.03275112 0 0 Z " fill="#3C3C3C" transform="translate(377.875,2104.6875)"/>
<path d="M0 0 C5.61 0 11.22 0 17 0 C19.85430162 10.45661417 22.70610061 20.91390205 25.55351925 31.37239265 C26.8758357 36.22883192 28.19923977 41.08496929 29.52514648 45.94042969 C30.80504984 50.62758455 32.08207386 55.31551521 33.35711861 60.00399399 C33.84369338 61.7911958 34.33129905 63.57811728 34.81995964 65.36474991 C35.50503177 67.87019566 36.18640777 70.3766196 36.86694336 72.88330078 C37.06906433 73.61913895 37.2711853 74.35497711 37.47943115 75.1131134 C38.54527779 79.05558039 39.40557405 82.95911063 40 87 C36.37 87 32.74 87 29 87 C26.09367813 79.80339346 23 71.83243807 23 64 C13.1 64 3.2 64 -7 64 C-7.33 66.64 -7.66 69.28 -8 72 C-8.28664417 73.36261524 -8.60121473 74.72051775 -8.97265625 76.0625 C-9.14990234 76.71347656 -9.32714844 77.36445313 -9.50976562 78.03515625 C-9.69216797 78.68355469 -9.87457031 79.33195312 -10.0625 80 C-10.24876953 80.67933594 -10.43503906 81.35867187 -10.62695312 82.05859375 C-11.07970916 83.70709008 -11.53913628 85.35375191 -12 87 C-15.96 87 -19.92 87 -24 87 C-20.64914223 71.58310194 -16.34386664 56.41489032 -12.11767578 41.22119141 C-11.07341987 37.46686727 -10.03477665 33.7110166 -8.99773979 29.95469284 C-8.1917098 27.03729191 -7.3829195 24.12066188 -6.57327652 21.20426178 C-6.18893274 19.81866221 -5.80540243 18.43283671 -5.42272568 17.04677582 C-4.8899091 15.11862799 -4.35299926 13.19161269 -3.81591797 11.26464844 C-3.36102493 9.62613922 -3.36102493 9.62613922 -2.89694214 7.95452881 C-2.07721294 5.25433954 -1.04801803 2.62004508 0 0 Z M8 10 C4.90190554 19.69353309 2.25491761 29.45313507 -0.25 39.3125 C-0.61689979 40.74681842 -0.98408583 42.18106365 -1.3515625 43.61523438 C-2.23818818 47.0758702 -3.1189753 50.53791509 -4 54 C3.92 54 11.84 54 20 54 C16.6186795 39.2574426 12.83585246 24.63025178 9 10 C8.67 10 8.34 10 8 10 Z " fill="#3C3C3C" transform="translate(254,2106)"/>
<path d="M0 0 C5.61 0 11.22 0 17 0 C20.00287701 10.89931851 23.00253137 21.79950972 25.99648285 32.70128345 C27.38674363 37.76308552 28.77842684 42.82448758 30.17333984 47.88500977 C31.51883478 52.76645378 32.86062055 57.64890326 34.19981384 62.5320797 C34.71202444 64.39720833 35.2255825 66.26196745 35.74049377 68.12635231 C36.46009763 70.73277212 37.17494862 73.3404511 37.88867188 75.94848633 C38.21127235 77.11050064 38.21127235 77.11050064 38.54039001 78.29598999 C39.35458876 81.28693584 40 83.88463914 40 87 C36.37 87 32.74 87 29 87 C23 69.57142857 23 69.57142857 23 64 C13.43 64.33 3.86 64.66 -6 65 C-7.98 72.26 -9.96 79.52 -12 87 C-15.96 87 -19.92 87 -24 87 C-18.98666833 66.9787074 -13.58453082 47.07414376 -8.0625 27.1875 C-7.72217743 25.95940613 -7.38185486 24.73131226 -7.03121948 23.46600342 C-6.0559406 19.94926924 -5.07746685 16.43344271 -4.09765625 12.91796875 C-3.80005402 11.84533279 -3.50245178 10.77269684 -3.1958313 9.66755676 C-2.92117035 8.68566879 -2.6465094 7.70378082 -2.36352539 6.69213867 C-2.12340225 5.83077805 -1.88327911 4.96941742 -1.63587952 4.08195496 C-1 2 -1 2 0 0 Z M8 10 C3.74897755 24.60723673 -0.20390002 39.26751673 -4 54 C3.92 54 11.84 54 20 54 C16.6186795 39.2574426 12.83585246 24.63025178 9 10 C8.67 10 8.34 10 8 10 Z " fill="#3C3C3C" transform="translate(925,2106)"/>
<path d="M0 0 C5.61 0 11.22 0 17 0 C20.00287701 10.89931851 23.00253137 21.79950972 25.99648285 32.70128345 C27.38674363 37.76308552 28.77842684 42.82448758 30.17333984 47.88500977 C31.51883478 52.76645378 32.86062055 57.64890326 34.19981384 62.5320797 C34.71202444 64.39720833 35.2255825 66.26196745 35.74049377 68.12635231 C36.46009763 70.73277212 37.17494862 73.3404511 37.88867188 75.94848633 C38.21127235 77.11050064 38.21127235 77.11050064 38.54039001 78.29598999 C39.35458876 81.28693584 40 83.88463914 40 87 C36.37 87 32.74 87 29 87 C23 69.57142857 23 69.57142857 23 64 C13.43 64.33 3.86 64.66 -6 65 C-7.98 72.26 -9.96 79.52 -12 87 C-15.96 87 -19.92 87 -24 87 C-18.98666833 66.9787074 -13.58453082 47.07414376 -8.0625 27.1875 C-7.72217743 25.95940613 -7.38185486 24.73131226 -7.03121948 23.46600342 C-6.0559406 19.94926924 -5.07746685 16.43344271 -4.09765625 12.91796875 C-3.80005402 11.84533279 -3.50245178 10.77269684 -3.1958313 9.66755676 C-2.92117035 8.68566879 -2.6465094 7.70378082 -2.36352539 6.69213867 C-2.12340225 5.83077805 -1.88327911 4.96941742 -1.63587952 4.08195496 C-1 2 -1 2 0 0 Z M8 10 C3.74897755 24.60723673 -0.20390002 39.26751673 -4 54 C3.92 54 11.84 54 20 54 C16.86006775 39.17951979 13.02494413 24.6031489 9 10 C8.67 10 8.34 10 8 10 Z " fill="#3C3C3C" transform="translate(1168,2106)"/>
<path d="M0 0 C15.84 0 31.68 0 48 0 C48 3.3 48 6.6 48 10 C35.79 10 23.58 10 11 10 C11 19.24 11 28.48 11 38 C21.23 38 31.46 38 42 38 C42 41.3 42 44.6 42 48 C31.77 48 21.54 48 11 48 C11 57.57 11 67.14 11 77 C23.21 77 35.42 77 48 77 C48 80.3 48 83.6 48 87 C32.16 87 16.32 87 0 87 C0 58.29 0 29.58 0 0 Z " fill="#3C3C3C" transform="translate(1644,2106)"/>
<path d="M0 0 C15.84 0 31.68 0 48 0 C48 3.3 48 6.6 48 10 C35.79 10 23.58 10 11 10 C11 19.24 11 28.48 11 38 C20.9 38 30.8 38 41 38 C41 41.3 41 44.6 41 48 C31.1 48 21.2 48 11 48 C11 57.57 11 67.14 11 77 C23.21 77 35.42 77 48 77 C48 80.3 48 83.6 48 87 C32.16 87 16.32 87 0 87 C0 58.29 0 29.58 0 0 Z " fill="#3C3C3C" transform="translate(1393,2106)"/>
<path d="M0 0 C15.84 0 31.68 0 48 0 C48 3.3 48 6.6 48 10 C35.79 10 23.58 10 11 10 C11 19.24 11 28.48 11 38 C20.9 38 30.8 38 41 38 C41 41.3 41 44.6 41 48 C31.1 48 21.2 48 11 48 C11 57.57 11 67.14 11 77 C23.21 77 35.42 77 48 77 C48 80.3 48 83.6 48 87 C32.16 87 16.32 87 0 87 C0 58.29 0 29.58 0 0 Z " fill="#3C3C3C" transform="translate(578,2106)"/>
<path d="M0 0 C18.48 0 36.96 0 56 0 C56 3.3 56 6.6 56 10 C48.74 10 41.48 10 34 10 C34 35.41 34 60.82 34 87 C30.37 87 26.74 87 23 87 C23 61.59 23 36.18 23 10 C15.41 10 7.82 10 0 10 C0 6.7 0 3.4 0 0 Z " fill="#3C3C3C" transform="translate(1875,2106)"/>
<path d="M0 0 C18.15 0 36.3 0 55 0 C55 3.3 55 6.6 55 10 C47.74 10 40.48 10 33 10 C33 35.41 33 60.82 33 87 C29.37 87 25.74 87 22 87 C22 61.59 22 36.18 22 10 C14.74 10 7.48 10 0 10 C0 6.7 0 3.4 0 0 Z " fill="#3C3C3C" transform="translate(464,2106)"/>
</svg>
